<svg width="266" height="78" viewBox="0 0 266 78" fill="none" xmlns="http://www.w3.org/2000/svg">
<g clip-path="url(#clip0_2_4)">
<path d="M54.9675 0.0338131H0.0271512L0 0V76.7624L0.0271512 77.9797H1.65622V77.3846L1.62907 53.8575C1.62907 50.8954 2.56579 49.8472 5.21981 49.8472H73.9258V48.2242H5.21981C2.57257 48.2242 1.62907 47.176 1.62907 44.2072L1.65622 28.2542C1.65622 25.6168 2.70833 24.6768 5.68138 24.6768H54.9675V0.0338131Z" fill="black"/>
<path d="M117.578 77.9864H92.9045V28.3083L117.578 15.9395V77.9864Z" fill="black"/>
<path d="M61.6264 12.5244C61.511 5.58593 67.1448 0.175842 73.9598 0.175842C80.7747 0.175842 86.2932 5.58593 86.2932 12.4094C86.2932 19.2329 80.8901 24.7579 73.9598 24.7579C67.0295 24.7579 61.6264 19.4628 61.6264 12.5244Z" fill="#B56B4E"/>
<path d="M124.217 12.5311V77.9865H148.89V0.108215L124.217 12.5311Z" fill="black"/>
<path d="M124.217 12.5311V77.9865H148.89V0.108215L124.217 12.5311Z" fill="black"/>
<path d="M264.765 61.6885C263.36 70.0877 258.323 73.212 253.911 73.212C250.408 73.212 248.555 70.7166 248.555 65.9963V52.5117C248.555 50.9495 249.825 49.6849 251.393 49.6849H265.98L266 49.6376V48.2242H251.393C249.825 48.2242 248.555 46.9596 248.555 45.3974V28.3353L223.821 15.8718V45.3974C223.821 46.9596 222.551 48.2242 220.983 48.2242H218.241V49.6849H220.983C222.551 49.6849 223.821 50.9495 223.821 52.5117V57.6107C223.773 63.9675 225.538 68.9854 229.068 72.5223C232.638 76.1064 237.919 78 244.34 78C256.158 78 263.882 71.9948 265.769 61.6885H264.778H264.765Z" fill="black"/>
<path d="M192.4 75.4099C184.445 75.4099 180.08 69.567 180.033 52.9716C180.033 51.2471 181.438 49.8472 183.162 49.8472H211.616C211.616 36.606 202.745 24.8323 185.185 24.8323C169.6 24.8323 155.508 34.4691 155.508 51.991C155.508 69.5129 170.156 77.9594 185.123 77.9594C198.55 77.9594 207.727 72.1098 210.965 61.6886H209.824C206.831 71.2374 198.984 75.4099 192.4 75.4099ZM180.087 30.9998C180.087 28.4165 182.198 26.3066 184.777 26.3066C187.357 26.3066 189.468 28.4165 189.468 30.9998V43.017C189.468 43.558 189.468 44.2343 189.474 44.8159C189.474 44.9443 189.468 45.0728 189.454 45.2013V45.4854C189.454 47.0002 188.212 48.231 186.698 48.231H180.087V30.9931V30.9998Z" fill="black"/>
</g>
<defs>
<clipPath id="clip0_2_4">
<rect width="266" height="78" fill="white"/>
</clipPath>
</defs>
</svg>
